<!DOCTYPE svg PUBLIC "-//W3C//DTD SVG 1.1//EN" "http://www.w3.org/Graphics/SVG/1.1/DTD/svg11.dtd">
<!-- Uploaded to: SVG Repo, www.svgrepo.com, Transformed by: SVG Repo Mixer Tools -->
<svg fill="#ffffff" height="800px" width="800px" version="1.1" id="Layer_1" xmlns="http://www.w3.org/2000/svg" xmlns:xlink="http://www.w3.org/1999/xlink" viewBox="0 0 512.009 512.009" xml:space="preserve">
<g id="SVGRepo_bgCarrier" stroke-width="0"/>
<g id="SVGRepo_tracerCarrier" stroke-linecap="round" stroke-linejoin="round"/>
<g id="SVGRepo_iconCarrier"> <g> <g> <path d="M490.675,405.341H320.013V299.825c8.62-11.273,13.751-25.357,13.751-40.646c0-12.504-3.435-24.202-9.399-34.217 c32.676-73.272,17.688-160.522-40.477-218.71c-8.331-8.334-21.84-8.335-30.173-0.003l-58.073,58.073 c-0.043-0.007-0.084-0.017-0.127-0.024L67.977,43.041c-0.113-0.021-0.227-0.037-0.34-0.057l-0.121-0.02 c-0.008-0.001-0.015-0.002-0.023-0.003c-0.335-0.055-0.672-0.103-1.011-0.142c-0.04-0.005-0.081-0.009-0.121-0.014 c-0.294-0.032-0.59-0.059-0.886-0.079c-0.094-0.007-0.188-0.012-0.282-0.017c-0.232-0.013-0.465-0.022-0.699-0.027 c-0.152-0.004-0.304-0.006-0.456-0.006c-0.019,0-0.038,0-0.057,0c-0.152,0-0.304,0.002-0.456,0.006 c-0.234,0.005-0.467,0.014-0.699,0.027c-0.094,0.005-0.188,0.011-0.282,0.017c-0.297,0.02-0.592,0.047-0.886,0.079 c-0.04,0.005-0.081,0.009-0.121,0.014c-0.339,0.039-0.676,0.087-1.011,0.142c-0.008,0.001-0.015,0.002-0.023,0.003 c-0.006,0.001-0.011,0.002-0.017,0.003c-0.344,0.058-0.685,0.123-1.024,0.197c-0.021,0.004-0.041,0.009-0.062,0.013 c-0.31,0.069-0.617,0.145-0.923,0.227c-0.056,0.015-0.113,0.029-0.169,0.045c-0.116,0.032-0.232,0.063-0.347,0.097 c-0.028,0.008-0.056,0.018-0.084,0.027c-0.109,0.033-0.216,0.069-0.325,0.103c-0.106,0.034-0.212,0.066-0.318,0.101 c-0.185,0.062-0.369,0.129-0.552,0.197c-0.165,0.06-0.331,0.12-0.494,0.184c-0.045,0.018-0.09,0.035-0.135,0.053 c-0.074,0.03-0.146,0.063-0.22,0.094c-0.218,0.09-0.436,0.182-0.65,0.279c-0.043,0.02-0.085,0.041-0.128,0.061 c-0.296,0.136-0.588,0.279-0.875,0.428c-0.069,0.036-0.138,0.074-0.207,0.111c-0.559,0.298-1.102,0.618-1.628,0.962 c-0.054,0.035-0.107,0.072-0.16,0.107c-0.545,0.363-1.071,0.75-1.577,1.159c-0.043,0.034-0.085,0.069-0.127,0.104 c-0.159,0.131-0.318,0.26-0.473,0.395c-0.02,0.017-0.039,0.036-0.059,0.053c-0.228,0.2-0.453,0.403-0.671,0.613 c-0.099,0.094-0.194,0.193-0.291,0.289c-0.02,0.02-0.042,0.036-0.062,0.056s-0.036,0.042-0.056,0.062 c-0.096,0.097-0.195,0.192-0.289,0.291c-0.209,0.219-0.412,0.444-0.613,0.671c-0.017,0.02-0.036,0.039-0.053,0.059 c-0.135,0.155-0.265,0.314-0.395,0.473c-0.035,0.042-0.07,0.084-0.104,0.127c-0.409,0.506-0.796,1.032-1.159,1.577 c-0.036,0.053-0.072,0.106-0.107,0.16c-0.344,0.526-0.664,1.069-0.962,1.628c-0.037,0.069-0.075,0.138-0.111,0.207 c-0.149,0.287-0.291,0.579-0.428,0.875c-0.02,0.043-0.041,0.085-0.061,0.128c-0.097,0.214-0.189,0.432-0.279,0.65 c-0.031,0.074-0.064,0.146-0.094,0.22c-0.018,0.045-0.035,0.09-0.053,0.135c-0.064,0.163-0.124,0.329-0.184,0.494 c-0.067,0.183-0.134,0.367-0.197,0.552c-0.035,0.105-0.068,0.212-0.101,0.318c-0.034,0.108-0.071,0.216-0.103,0.325 c-0.008,0.028-0.018,0.056-0.027,0.084c-0.034,0.115-0.065,0.231-0.097,0.347c-0.016,0.056-0.03,0.113-0.045,0.169 c-0.082,0.305-0.158,0.613-0.227,0.923c-0.005,0.02-0.009,0.041-0.013,0.062c-0.074,0.339-0.14,0.68-0.197,1.024 c-0.001,0.006-0.002,0.011-0.003,0.017c-0.001,0.008-0.002,0.015-0.003,0.023c-0.055,0.335-0.103,0.672-0.142,1.011 c-0.005,0.04-0.009,0.081-0.014,0.121c-0.032,0.294-0.059,0.59-0.079,0.886c-0.007,0.094-0.012,0.188-0.017,0.282 c-0.013,0.232-0.022,0.465-0.027,0.699c-0.004,0.153-0.006,0.305-0.006,0.457c0,0.018,0,0.037,0,0.055 c0,0.152,0.002,0.305,0.006,0.457c0.005,0.234,0.014,0.467,0.027,0.699c0.005,0.094,0.011,0.188,0.017,0.282 c0.02,0.297,0.047,0.592,0.079,0.886c0.005,0.04,0.009,0.081,0.014,0.121c0.039,0.339,0.087,0.676,0.142,1.011 c0.001,0.008,0.002,0.015,0.003,0.023l0.02,0.121c0.02,0.113,0.035,0.228,0.057,0.34l21.256,127.539 c0.007,0.043,0.017,0.084,0.024,0.127L6.248,253.716c-8.332,8.332-8.331,21.842,0.003,30.173 c55.316,55.296,136.633,71.302,207.095,45.101v76.351H21.342c-11.782,0-21.333,9.551-21.333,21.333v64 c0,11.782,9.551,21.333,21.333,21.333h469.333c11.782,0,21.333-9.551,21.333-21.333v-64 C512.009,414.892,502.457,405.341,490.675,405.341z M278.7,280.151c-3.874,2.21-7.882,3.34-11.914,3.34 c-4.032,0-8.04-1.131-11.914-3.34c-0.602-0.343-1.222-0.646-1.851-0.927c-0.546-0.376-1.077-0.773-1.59-1.192 c-0.151-0.138-0.296-0.28-0.452-0.415c-3.358-2.9-5.834-6.572-7.223-10.659c-0.006-0.019-0.013-0.038-0.019-0.058 c-0.119-0.353-0.227-0.711-0.33-1.07c-0.023-0.082-0.048-0.164-0.07-0.247c-0.08-0.293-0.152-0.589-0.221-0.885 c-0.032-0.139-0.066-0.277-0.096-0.417c-0.051-0.235-0.093-0.472-0.137-0.71c-0.036-0.195-0.074-0.389-0.105-0.586 c-0.027-0.17-0.047-0.342-0.07-0.513c-0.035-0.26-0.072-0.519-0.099-0.781c-0.007-0.068-0.01-0.137-0.017-0.205 c-0.071-0.759-0.112-1.527-0.112-2.305c0-7.84,3.712-14.808,9.467-19.256c4.106-3.171,9.251-5.062,14.84-5.064 c2.095,0.001,4.128,0.266,6.068,0.765c4.288,1.106,8.192,3.38,11.348,6.618c0.089,0.091,0.182,0.173,0.272,0.262 c4.104,4.354,6.624,10.218,6.624,16.675c0,8.32-4.178,15.66-10.549,20.045C279.92,279.506,279.301,279.808,278.7,280.151z M144.924,115.041c-0.563-0.733-1.16-1.447-1.83-2.118l-16.928-16.928l32.404,5.401L144.924,115.041z M95.996,126.165 l16.928,16.928c0.671,0.671,1.385,1.268,2.118,1.83l-13.645,13.645L95.996,126.165z M52.553,267.751L267.751,52.553 c31.186,41.327,39.228,95.507,22.162,143.744c-1.628-0.599-3.293-1.12-4.978-1.594c-0.259-0.073-0.516-0.15-0.776-0.22 c-0.638-0.171-1.282-0.326-1.927-0.479c-0.389-0.092-0.778-0.185-1.169-0.27c-0.577-0.125-1.158-0.241-1.74-0.352 c-0.478-0.091-0.957-0.176-1.437-0.257c-0.526-0.088-1.053-0.172-1.583-0.248c-0.566-0.081-1.134-0.15-1.703-0.216 c-0.466-0.054-0.931-0.111-1.4-0.156c-0.691-0.066-1.385-0.113-2.08-0.158c-0.365-0.023-0.727-0.056-1.094-0.073 c-1.072-0.051-2.149-0.082-3.23-0.082c-0.003,0-0.006,0-0.009,0s-0.006,0-0.009,0c-15.662,0-30.056,5.394-41.462,14.406 c-15.53,12.267-25.508,31.252-25.508,52.58c0,1.809,0.095,3.602,0.239,5.385c0.041,0.517,0.07,1.038,0.123,1.552 c0.04,0.382,0.099,0.758,0.145,1.138c0.094,0.785,0.188,1.571,0.31,2.348c0.033,0.212,0.077,0.42,0.113,0.631 c0.157,0.947,0.327,1.889,0.523,2.821c0.02,0.093,0.044,0.184,0.064,0.276c0.226,1.052,0.475,2.095,0.751,3.128 c0.003,0.011,0.006,0.022,0.01,0.033c0.893,3.345,2.041,6.583,3.417,9.701C155.238,307.766,96.645,301.011,52.553,267.751z M256.013,325.293c1.758,0.284,3.541,0.491,5.342,0.636c0.005,0,0.009,0.001,0.014,0.001c0.871,0.07,1.743,0.13,2.623,0.166 c0.239,0.01,0.48,0.01,0.719,0.018c0.688,0.021,1.374,0.052,2.067,0.052c0.607,0,1.206-0.03,1.809-0.046 c0.326-0.009,0.652-0.011,0.977-0.025c0.803-0.033,1.599-0.088,2.394-0.148c0.074-0.006,0.148-0.011,0.222-0.017 c1.741-0.139,3.466-0.332,5.166-0.601v80.012h-21.333V325.293z M469.342,469.341H42.675v-21.333h191.877 c0.043,0,0.084,0.006,0.127,0.006h64c0.043,0,0.084-0.006,0.127-0.006h170.536V469.341z"/> </g> </g> </g>
</svg>