<!DOCTYPE svg PUBLIC "-//W3C//DTD SVG 1.1//EN" "http://www.w3.org/Graphics/SVG/1.1/DTD/svg11.dtd">
<!-- Uploaded to: SVG Repo, www.svgrepo.com, Transformed by: SVG Repo Mixer Tools -->
<svg version="1.1" id="_x32_" xmlns="http://www.w3.org/2000/svg" xmlns:xlink="http://www.w3.org/1999/xlink" viewBox="0 0 512 512" xml:space="preserve" width="800px" height="800px" fill="#000000">
<g id="SVGRepo_bgCarrier" stroke-width="0"/>
<g id="SVGRepo_tracerCarrier" stroke-linecap="round" stroke-linejoin="round"/>
<g id="SVGRepo_iconCarrier"> <style type="text/css"> .st0{fill:#ffffff;} </style> <g> <path class="st0" d="M485.41,417.002L351.756,203.533c-12.166-19.439-18.611-41.904-18.611-64.826L333.316,0h-23.654l-0.16,138.293 v0.414c0,27.359,7.708,54.166,22.222,77.363l133.653,213.48c3.896,6.222,5.861,13.293,5.861,20.384 c0,6.412-1.604,12.826-4.821,18.642c-6.773,12.21-19.651,19.79-33.601,19.79h-0.213l-353.461-0.382 c-13.983-0.01-26.85-7.623-33.602-19.854c-3.196-5.817-4.778-12.188-4.778-18.579c0-7.113,1.965-14.205,5.893-20.436 l134.11-213.215c14.609-23.208,22.359-50.048,22.391-77.481L203.304,0h-23.611l-0.17,138.399 c-0.033,22.974-6.53,45.481-18.76,64.931L26.652,416.534c-6.338,10.065-9.534,21.531-9.522,33.018 c-0.011,10.298,2.558,20.639,7.718,29.982c10.904,19.79,31.701,32.062,54.273,32.083L432.741,512l0.01-11.816V512l0.85-0.031 v-0.033c22.242-0.276,42.668-12.422,53.486-31.902c5.191-9.374,7.782-19.758,7.782-30.099 C494.87,438.49,491.695,427.056,485.41,417.002z"/> <path class="st0" d="M82.54,427.534c-3.897,6.22-4.119,14.077-0.584,20.489c3.545,6.434,10.308,10.766,17.666,10.787h312.767 c7.336,0,14.1-3.992,17.645-10.404c3.568-6.423,3.354-14.29-0.542-20.502l-53.794-85.931 c-93.778,33.209-140.289-29.494-219.309-31.829L82.54,427.534z"/> <rect x="214.016" y="43.89" class="st0" width="48.922" height="16.307"/> <rect x="214.016" y="98.703" class="st0" width="48.922" height="16.307"/> <rect x="214.016" y="153.506" class="st0" width="48.922" height="16.307"/> </g> </g>
</svg>