<!DOCTYPE svg PUBLIC "-//W3C//DTD SVG 1.1//EN" "http://www.w3.org/Graphics/SVG/1.1/DTD/svg11.dtd">
<!-- Uploaded to: SVG Repo, www.svgrepo.com, Transformed by: SVG Repo Mixer Tools -->
<svg width="800px" height="800px" viewBox="0 0 64 64" xmlns="http://www.w3.org/2000/svg" fill="#000000">
<g id="SVGRepo_bgCarrier" stroke-width="0"/>
<g id="SVGRepo_tracerCarrier" stroke-linecap="round" stroke-linejoin="round"/>
<g id="SVGRepo_iconCarrier">
<path d="m57.46 34.32a12.79 12.79 0 0 0 -2.37-1.25 37.19 37.19 0 0 1 -.09-3.79 7.85 7.85 0 0 0 1.75-.92c.13-.25.17-20.88.05-21.17s-5.67-.12-5.84 0 .21 21 .25 21.21 1.75.79 1.75.79 0 .34.09.55a30.83 30.83 0 0 1 -4.71 0c-.17-.05 0-.84 0-.84a6.23 6.23 0 0 0 1.46-.83c.21-.29.21-20.63.16-20.92s-5.75-.08-6.2.25.37 20.42.45 20.75 2.21.71 2.21.71.13.71.13.88-8.42.08-8.54 0 .08-1.75 0-2-3.63-1.17-3.63-1.17 0-1.38 0-1.63 7.25.55 7.88.3.41-5.05.29-5.55-5.83-.41-5.83-.41l-.05-.75 1.38.21c.54.08 1.29-.71 1.46-1.21s-.84-1-.84-1l.3-1.09a1.47 1.47 0 0 0 1-.58.83.83 0 0 0 -.42-1.25c-.5-.12-1.75.58-1.75.58a3.42 3.42 0 0 0 -.92-1c-.5-.29-1.25-.66-2.25.46s-.16 3-.16 3-.75.38-.88.46.42 1.21.54 1.38.34.12.63.16.79.29.91.29 0 .46 0 .46l-7.96-.4.08-.75s2.42.08 2.63 0a22.16 22.16 0 0 0 .25-4.5c-.08-.34-7.38-.25-7.58-.17s.2 3.92.2 4.13 1.3.54 1.3.54.08.58.12.71-3.5.08-3.92.29-.12 4.21 0 4.58 8 .58 8 .58l.13 1.84a25.87 25.87 0 0 0 -4.13.21c-.62.25-.25 3.29-.25 3.29s-.46.08-.92.12-6.16 0-6.33 0 0-.62 0-.75 1.5-.37 1.67-.71.91-20.91.87-21.29-5.83-.29-6-.08-.41 21.17-.29 21.33a8.25 8.25 0 0 0 1.5.63 4 4 0 0 1 0 .83c0 .29-4.5-.25-4.66-.25s0-.71.12-.87 1.29-.09 1.5-.38.83-21 .83-21.17-5.54-.33-6 .09-.16 19.83-.12 20.16 1.67 1.25 1.67 1.25.2 3.25.16 3.5-1.75.84-1.87 1.05.46 22.2.62 22.62 5.5 0 5.67 0 .04-21.55.04-22.05-2.54-1.55-2.54-1.55v-.79l4.83.29s0 .67-.08.84-1 1-1.13 1.21.05 21.29.17 22 5.46.33 5.75.12-.17-22-.17-22.17a16.34 16.34 0 0 0 -2.45-1.08l-.05-1 7.38-.37a11.71 11.71 0 0 0 .17 1.46c.08.25 3.83.33 3.95.33s0 .5 0 .67-5.79.29-6 .54 0 6 .25 6.29 16.59.42 16.84.25.16-5.92.12-6.13-5.75-.7-6-.83 0-.37 0-.58 4-.25 4.17-.38 0-1.12 0-1.25 8.33.13 8.33.13 0 1.08 0 1.29-2.33 1.12-2.5 1.42-.25 21.95-.17 22.16a24.74 24.74 0 0 0 5.84.09c.16-.25.79-21.8.79-22.13s-1.63-1.08-1.84-1.17-.16-1.29-.08-1.41a40.8 40.8 0 0 1 4.42-.03c.17.05.21 1.13.21 1.34s-1.62 1.16-1.83 1.33 0 2-.13 7.42-.25 14.48-.08 14.81 5 .08 5.25 0 .58-1.9.58-6.46.5-15.87.46-16.12zm-48.79-25.54c.29 0 2.17-.17 2.21.12a9.57 9.57 0 0 1 -.13 2.71 5.35 5.35 0 0 1 -2.29 0c-.08-.21-.12-2.79.21-2.83zm-.08 3.83a5.7 5.7 0 0 1 2.12.08v2.09s-2.29.25-2.29 0-.08-2 .17-2.17zm-.13 3.17a7 7 0 0 1 2.21.08c0 .17 0 2.58-.17 2.58h-2.12s0-2.62.08-2.66zm.08 3.66a7.28 7.28 0 0 1 2 .09 10.51 10.51 0 0 1 .05 2.79 9 9 0 0 1 -2.17-.13 10.35 10.35 0 0 1 .12-2.75zm-.08 7.25a24.52 24.52 0 0 1 .13-3.58s1.83 0 1.87.17a15.89 15.89 0 0 1 -.21 3.5c-.25.04-1.75.12-1.79-.09zm2.78 27.31c0 .36-1.91.24-2.2.21s-.37-3.21-.29-3.45 2.08-.2 2.29-.06a13.86 13.86 0 0 1 .2 3.3zm-2.51-6.66c0-.21 2.3 0 2.3 0s.08 1.91.09 2.08a5.9 5.9 0 0 1 -2.12.12c-.26-.16-.26-1.99-.27-2.2zm.27-1.13a20.09 20.09 0 0 1 -.14-2.29l2.14-.09c.21 0 .22 2.11.22 2.25a8.23 8.23 0 0 1 -2.22.13zm2-3.21a9.81 9.81 0 0 1 -2 .11 5.76 5.76 0 0 1 -.17-2 12.49 12.49 0 0 1 2.17-.19 5.86 5.86 0 0 1 0 2.08zm0-2.88a10.65 10.65 0 0 1 -2.08.16 9.79 9.79 0 0 1 -.18-2.28 8.3 8.3 0 0 1 2-.1c.26-.02.31 2.1.26 2.23zm-.42-5.53a8.09 8.09 0 0 1 .27 2.45 8.74 8.74 0 0 1 -1.85.17 12.74 12.74 0 0 1 -.2-2.51 6 6 0 0 1 1.79-.1zm4.84-25.65c.29 0 2.17-.16 2.21.13a9.57 9.57 0 0 1 -.13 2.71 5.51 5.51 0 0 1 -2.29 0c-.08-.21-.12-2.78.21-2.84zm-.08 3.84a5.49 5.49 0 0 1 2.12.08v2.08s-2.29.25-2.29 0-.08-2 .17-2.16zm-.13 3.16a7 7 0 0 1 2.21.09c0 .16 0 2.58-.17 2.58h-2.12s0-2.61.08-2.67zm.08 3.67a7.76 7.76 0 0 1 2 .08 10.51 10.51 0 0 1 .05 2.79 9 9 0 0 1 -2.17-.12 10.33 10.33 0 0 1 .12-2.75zm-.08 7.25a24.52 24.52 0 0 1 .13-3.58s1.83-.05 1.87.16a15.81 15.81 0 0 1 -.21 3.5c-.21.06-1.75.13-1.79-.08zm3.16 27.3c0 .36-1.91.24-2.21.2s-.36-3.18-.28-3.44 2.07-.2 2.29-.05a14.41 14.41 0 0 1 .2 3.29zm-2.51-6.66c0-.2 2.29 0 2.29 0s.09 1.92.09 2.08a5.63 5.63 0 0 1 -2.12.14c-.25-.17-.26-2.01-.26-2.22zm.26-1.13a22.45 22.45 0 0 1 -.12-2.29l2.11-.08c.21 0 .21 2.1.22 2.25a8.35 8.35 0 0 1 -2.21.12zm2-3.19a9.91 9.91 0 0 1 -2 .11 5.57 5.57 0 0 1 -.12-2.06 12.63 12.63 0 0 1 2.17-.14 5.85 5.85 0 0 1 -.02 2.09zm0-2.88a10.55 10.55 0 0 1 -2.07.16 9.29 9.29 0 0 1 -.19-2.33 7.73 7.73 0 0 1 2-.1c.22.02.32 2.13.27 2.27zm-.41-5.53a8 8 0 0 1 .29 2.44 8.06 8.06 0 0 1 -1.87.16 11.92 11.92 0 0 1 -.18-2.5 5.65 5.65 0 0 1 1.77-.1zm18.75-20.83c.17 0 .79.34.5.59s-.87.2-.92.45-.54.59.25.63a5.84 5.84 0 0 0 2.09-.61s-.63 1.58-.5 1.75.5.25.58.37.17.58 0 .63a2.28 2.28 0 0 1 -2.54-.8c-1.08-1.26-.75-2.8.54-3.01zm-12.17 3.25a10.06 10.06 0 0 1 .13-2.5s5.17-.08 5.21.09a10.07 10.07 0 0 1 -.21 2.58c-.17 0-5-.04-5.13-.17zm11 12.46c.13.17 1.42 1.46 1.21 1.58s-.42.25-.58.17-1.75-2.12-2-2.17a2.17 2.17 0 0 0 -.71.13l1.42 2.08a2.28 2.28 0 0 1 -.71 0c-.13-.08-1.46-1.75-1.75-1.79a.85.85 0 0 0 -.5.08l1.17 2s-.92.17-.92.58-.33 2.8.17 2.88 5.91.62 6 .87a2.16 2.16 0 0 1 .08.8s-1.08-.3-1.08-.05 1 1.88.75 2.09-.59.37-.67.21-2-2.55-2-2.55-.71 0-.67.17 1.71 2.17 1.5 2.27a3.73 3.73 0 0 1 -1 0 15.56 15.56 0 0 0 -1.62-2c-.21-.05-.54-.05-.59.16a11.24 11.24 0 0 0 1.09 1.88s-4.54-.09-6.54 0-2.67.12-2.67-.09a23.77 23.77 0 0 1 -.08-3.46c.16-.12 5.87-.12 5.91-.37s-.16-3-.16-3a32.52 32.52 0 0 1 -3.84-.46c-.12-.17-.33-3.75-.08-3.83s4.37 0 4.46-.46a26.18 26.18 0 0 0 -.17-4.54c-.17-.09-7.67-.17-7.83-.34a3.76 3.76 0 0 1 -.13-1.79c.3-.4 5.34 0 10.46.17s7.75.25 7.88.5.12 2.12-.13 2.12-7.83-.66-8-.33a17.69 17.69 0 0 0 -.29 4.63c.21.12 3.75.66 3.83.95a4.54 4.54 0 0 1 0 1.13l-1-.75s-.37.36-.25.53zm10.71-20.81c.29 0 2.16-.21 2.21.08a9.69 9.69 0 0 1 -.06 2.71 5.24 5.24 0 0 1 -2.29 0c-.13-.16-.24-2.74.14-2.79zm0 3.84a5.6 5.6 0 0 1 2.13 0v2.08s-2.29.31-2.29.1-.12-2.01.16-2.18zm-.05 3.17a6.77 6.77 0 0 1 2.21 0c0 .16.11 2.58-.1 2.58h-2.17s-.06-2.54.02-2.58zm.17 3.66a7.23 7.23 0 0 1 2 0 10.6 10.6 0 0 1 .1 2.79 9.14 9.14 0 0 1 -2.22-.04 10.43 10.43 0 0 1 .08-2.75zm.09 7.25a26.65 26.65 0 0 1 0-3.59s1.83-.08 1.88.13a15.44 15.44 0 0 1 -.09 3.5c-.24.05-1.78.2-1.83-.04zm.13 8.24a5.88 5.88 0 0 1 1.79 0 7.63 7.63 0 0 1 .15 2.46 8.55 8.55 0 0 1 -1.88.07 12.25 12.25 0 0 1 -.06-2.53zm-.21 3.25a8.11 8.11 0 0 1 2 0c.24 0 .23 2.15.18 2.29a11.23 11.23 0 0 1 -2.08 0 9.42 9.42 0 0 1 -.1-2.29zm1.75 16.13c-.05.36-1.92.15-2.21.1s-.22-3.2-.13-3.45 2.08-.1 2.29.06a14.28 14.28 0 0 1 .05 3.29zm.12-4.59a5.59 5.59 0 0 1 -2.13 0c-.25-.18-.16-2-.16-2.22s2.29.1 2.29.1zm.24-3.31a8.56 8.56 0 0 1 -2.21 0 19.73 19.73 0 0 1 0-2.3h2.12c.15.04.06 2.15.06 2.3zm0-3.08a10.8 10.8 0 0 1 -2 0 5.65 5.65 0 0 1 -.08-2.06 11.93 11.93 0 0 1 2.17 0 6.21 6.21 0 0 1 -.16 2.06zm7.09-8.17a8.24 8.24 0 0 1 .15 2.46 8.57 8.57 0 0 1 -1.88.07 13 13 0 0 1 -.07-2.51 6 6 0 0 1 1.73-.02zm-2.41-26.39c.29 0 2.16-.21 2.21.08a9.67 9.67 0 0 1 -.07 2.71 5.24 5.24 0 0 1 -2.29 0c-.08-.16-.19-2.74.15-2.79zm0 3.84a5.61 5.61 0 0 1 2.13 0v2.08s-2.29.31-2.29.1-.08-2.01.16-2.18zm-.05 3.17a6.77 6.77 0 0 1 2.21 0 10.31 10.31 0 0 1 -.1 2.58h-2.13s-.06-2.54.02-2.58zm.13 6.41a10.43 10.43 0 0 1 0-2.75c.36 0 1.92-.13 2 0a10.21 10.21 0 0 1 .11 2.79 9.14 9.14 0 0 1 -2.11-.04zm.15 4.5a25.1 25.1 0 0 1 0-3.59s1.83-.08 1.88.13a15.44 15.44 0 0 1 -.13 3.5c-.18.05-1.72.2-1.77-.04zm.12 11.74a8.2 8.2 0 0 1 2 0c.23 0 .23 2.15.18 2.29a11.23 11.23 0 0 1 -2.08 0 9.4 9.4 0 0 1 -.12-2.29zm1.73 16.13c0 .36-1.92.15-2.21.1s-.22-3.2-.13-3.45 2.09-.1 2.29.06a13.74 13.74 0 0 1 .05 3.29zm.09-4.63a5.59 5.59 0 0 1 -2.13 0c-.24-.18-.16-2-.15-2.22s2.29.1 2.29.1-.01 2-.01 2.12zm.24-3.31a8.54 8.54 0 0 1 -2.21 0 22.2 22.2 0 0 1 0-2.3h2.13c.18.08.08 2.19.08 2.34zm0-3.08a10.76 10.76 0 0 1 -2 0 5.65 5.65 0 0 1 -.07-2.06 11.82 11.82 0 0 1 2.16 0 5.73 5.73 0 0 1 -.13 2.1zm-28-15.25a8.62 8.62 0 0 0 .09 2.71c.16.29.79.12.91 0a10.83 10.83 0 0 0 0-2.67c-.12-.21-.96-.1-1.04 0z" fill="#ffffff"/>
</g>
</svg>