<!DOCTYPE svg PUBLIC "-//W3C//DTD SVG 1.1//EN" "http://www.w3.org/Graphics/SVG/1.1/DTD/svg11.dtd">
<!-- Uploaded to: SVG Repo, www.svgrepo.com, Transformed by: SVG Repo Mixer Tools -->
<svg height="800px" width="800px" version="1.1" id="_x32_" xmlns="http://www.w3.org/2000/svg" xmlns:xlink="http://www.w3.org/1999/xlink" viewBox="0 0 512 512" xml:space="preserve" fill="#000000">
<g id="SVGRepo_bgCarrier" stroke-width="0"/>
<g id="SVGRepo_tracerCarrier" stroke-linecap="round" stroke-linejoin="round"/>
<g id="SVGRepo_iconCarrier"> <style type="text/css"> .st0{fill:#ffffff;} </style> <g> <path class="st0" d="M39.682,290.046c-10.879-10.9-17.574-25.833-17.577-42.444c0.004-16.612,6.698-31.545,17.577-42.438 c10.896-10.886,25.832-17.581,42.44-17.581c6.2,0,12.146,0.933,17.75,2.669l12.888,3.997l1.378-13.426 c2.081-20.279,11.678-38.312,25.998-51.314c14.333-13.002,33.252-20.889,54.123-20.896c14.229,0,27.515,3.667,39.097,10.118 c11.574,6.444,21.416,15.687,28.588,26.787l18.567-12.005c-9.142-14.136-21.642-25.876-36.399-34.092 c-14.754-8.231-31.796-12.917-49.854-12.917c-26.515-0.006-50.787,10.104-68.981,26.637 c-15.288,13.871-26.299,32.363-31.039,53.238c-3.961-0.588-8.005-0.904-12.117-0.904c-22.643-0.008-43.241,9.214-58.07,24.054 C9.21,204.352-0.007,224.954,0,247.601c-0.007,22.646,9.206,43.248,24.053,58.074c14.825,14.846,35.427,24.068,58.07,24.053h0.714 v-22.101h-0.714C65.515,307.619,50.582,300.924,39.682,290.046z"/> <path class="st0" d="M487.182,280.832c-12.92-12.93-30.109-21.642-49.201-24.06c-1.664-29.888-14.344-56.918-34.2-76.752 c-21.298-21.32-50.844-34.537-83.361-34.53c-30.458-0.008-58.321,11.596-79.224,30.583c-17.972,16.31-30.852,38.168-36.069,62.839 c-5.052-0.84-10.222-1.314-15.5-1.314c-25.908-0.007-49.462,10.528-66.43,27.52c-16.985,16.964-27.523,40.522-27.519,66.426 c-0.004,25.912,10.534,49.47,27.519,66.433c16.967,16.985,40.521,27.519,66.43,27.519h237.637c23.361,0,44.616-9.5,59.918-24.821 c15.317-15.298,24.825-36.553,24.818-59.918C512.007,317.393,502.499,296.131,487.182,280.832z M471.55,385.039 c-11.37,11.352-26.956,18.341-44.286,18.348H189.627c-19.873-0.007-37.766-8.022-50.801-21.039 c-13.016-13.038-21.036-30.928-21.042-50.805c0.006-19.87,8.026-37.766,21.042-50.798c13.036-13.017,30.928-21.04,50.801-21.046 c7.42,0,14.542,1.119,21.251,3.2l12.881,3.983l1.378-13.419c2.479-24.11,13.896-45.559,30.92-61.023 c17.039-15.449,39.546-24.842,64.363-24.842c26.486,0,50.363,10.698,67.732,28.057c17.351,17.366,28.054,41.246,28.057,67.732 c0,0.933-0.039,2.024-0.086,3.301l-0.42,11.89l11.743-0.452c17.254,0.057,32.772,7.032,44.103,18.341 c11.352,11.373,18.341,26.959,18.345,44.289C489.891,358.087,482.902,373.672,471.55,385.039z"/> </g> </g>
</svg>