<!DOCTYPE svg PUBLIC "-//W3C//DTD SVG 1.1//EN" "http://www.w3.org/Graphics/SVG/1.1/DTD/svg11.dtd">
<!-- Uploaded to: SVG Repo, www.svgrepo.com, Transformed by: SVG Repo Mixer Tools -->
<svg version="1.1" id="_x32_" xmlns="http://www.w3.org/2000/svg" xmlns:xlink="http://www.w3.org/1999/xlink" width="800px" height="800px" viewBox="0 0 512 512" xml:space="preserve" fill="#000000">
<g id="SVGRepo_bgCarrier" stroke-width="0"/>
<g id="SVGRepo_tracerCarrier" stroke-linecap="round" stroke-linejoin="round"/>
<g id="SVGRepo_iconCarrier"> <style type="text/css">  .st0{fill:#ffffff;}  </style> <g> <path class="st0" d="M455.727,118.433c-18.344-18.313-42.484-30.891-69.266-35.188c-8.422-21.797-22.438-40.766-40.359-55.031 C323.523,10.23,294.586-0.411,263.477,0.011c-31.438,0.406-60.344,12.047-82.547,30.984 c-16.656,14.203-29.703,32.516-37.547,53.406c-34.641,0.625-66.031,15.219-88.422,38.25 c-22.563,23.141-36.359,55.141-35.875,90.016c0.453,34.875,15.109,66.5,38.281,89.031c23.141,22.563,55.141,36.359,90.016,35.875 c47.984-0.641,173.438-2.328,220.625-2.969c34.875-0.453,66.5-15.109,89.016-38.281c22.563-23.141,36.375-55.125,35.891-90.016 C492.461,171.996,478.258,140.839,455.727,118.433z M421.258,261.496c-13.75,14.125-32.656,22.906-53.906,23.203 c-47.203,0.625-172.656,2.313-220.641,2.953c-21.25,0.281-40.375-8-54.531-21.734c-14.094-13.766-22.875-32.656-23.188-53.922 c-0.266-21.25,8.016-40.375,21.734-54.531c13.781-14.078,32.672-22.875,53.922-23.172c4.281-0.063,8.656,0.328,13.266,1.063 l24.031,3.859l4.453-23.922c3.422-18.359,13.141-34.563,26.891-46.281c13.766-11.719,31.344-18.813,50.859-19.078 c19.313-0.25,36.875,6.234,50.891,17.359c13.984,11.125,24.172,26.813,28.297,44.766l4.391,19.109l19.609,0.266 c20.766,0.266,39.422,8.703,53.156,22.359c13.703,13.703,22.219,32.281,22.516,53.188 C443.273,228.246,434.992,247.355,421.258,261.496z"/> <path class="st0" d="M149.398,364.042c0,0-19.625,18.344-24.266,24c-1.766,2.156-3.078,4.734-3.813,7.594 c-2.625,10.438,3.703,21.031,14.141,23.671c10.438,2.609,21.031-3.703,23.672-14.14c0.719-2.875,0.766-5.75,0.25-8.484 C157.977,389.496,149.398,364.042,149.398,364.042z"/> <path class="st0" d="M126.18,456.136c0,0-19.625,18.359-24.266,24.016c-1.75,2.172-3.078,4.719-3.797,7.594 c-2.641,10.438,3.703,21.031,14.141,23.656c10.438,2.641,21.031-3.688,23.656-14.141c0.719-2.859,0.781-5.75,0.25-8.469 C134.758,481.604,126.18,456.136,126.18,456.136z"/> <path class="st0" d="M265.992,362.464c0,0-19.625,18.359-24.266,24.016c-1.75,2.156-3.078,4.719-3.797,7.578 c-2.641,10.453,3.688,21.046,14.125,23.687c10.438,2.609,21.047-3.719,23.672-14.14c0.719-2.891,0.766-5.75,0.234-8.5 C274.57,387.933,265.992,362.464,265.992,362.464z"/> <path class="st0" d="M242.773,454.573c0,0-19.625,18.359-24.25,24.016c-1.766,2.172-3.094,4.719-3.813,7.578 c-2.641,10.453,3.688,21.047,14.141,23.672c10.438,2.625,21.031-3.703,23.656-14.141c0.734-2.875,0.766-5.75,0.25-8.469 C251.367,480.042,242.773,454.573,242.773,454.573z"/> <path class="st0" d="M382.586,360.902c0,0-19.625,18.359-24.266,24.016c-1.766,2.156-3.094,4.719-3.813,7.578 c-2.625,10.438,3.719,21.046,14.141,23.671c10.453,2.625,21.047-3.703,23.672-14.14c0.734-2.875,0.766-5.75,0.25-8.484 C391.164,386.371,382.586,360.902,382.586,360.902z"/> <path class="st0" d="M359.367,453.011c0,0-19.609,18.344-24.25,24.016c-1.766,2.156-3.078,4.703-3.813,7.578 c-2.625,10.438,3.703,21.031,14.141,23.672c10.438,2.625,21.031-3.703,23.672-14.141c0.719-2.875,0.766-5.75,0.234-8.484 C367.945,478.464,359.367,453.011,359.367,453.011z"/> </g> </g>
</svg>